<svg id="Layer_1" data-name="Layer 1" xmlns="http://www.w3.org/2000/svg" viewBox="0 0 200 200"><title>Icons for tool tips in CRM course</title><path d="M139,48V155.37a2.63,2.63,0,0,1-2.63,2.63H56V48h83m.21-15H55.79A14.79,14.79,0,0,0,41,47.79V158.21A14.79,14.79,0,0,0,55.79,173h80.58A17.63,17.63,0,0,0,154,155.37V47.79A14.79,14.79,0,0,0,139.21,33Z"/><path d="M123,76.5H72a7.52,7.52,0,0,1,0-15H123a7.52,7.52,0,0,1,0,15Z"/><path d="M123,107.5H72a7.52,7.52,0,0,1,0-15H123a7.52,7.52,0,0,1,0,15Z"/><path d="M123,139.5H72a7.52,7.52,0,0,1,0-15H123a7.52,7.52,0,0,1,0,15Z"/></svg>